<?xml version="1.0" standalone="no"?>
<!DOCTYPE svg PUBLIC "-//W3C//DTD SVG 20010904//EN"
 "http://www.w3.org/TR/2001/REC-SVG-20010904/DTD/svg10.dtd">
<svg version="1.0" xmlns="http://www.w3.org/2000/svg"
 width="700.000000pt" height="700.000000pt" viewBox="0 0 700.000000 700.000000"
 preserveAspectRatio="xMidYMid meet">
<metadata>
Created by potrace 1.11, written by Peter Selinger 2001-2013
</metadata>
<g transform="translate(0.000000,700.000000) scale(0.100000,-0.100000)"
fill="#000000" stroke="none">
<path d="M3165 6888 c-293 -39 -567 -237 -700 -506 -62 -127 -87 -229 -92
-389 l-5 -141 -272 -98 c-149 -53 -276 -99 -283 -101 -6 -3 -18 8 -27 24 -22
43 -131 158 -190 200 -28 21 -53 40 -56 44 -13 16 -165 87 -235 109 -316 100
-669 19 -908 -208 -383 -364 -392 -959 -21 -1328 242 -241 596 -330 923 -233
10 3 62 -75 162 -241 81 -135 148 -251 148 -259 1 -11 -232 -383 -259 -414 -3
-4 -26 0 -51 8 -136 48 -345 52 -510 10 -208 -54 -412 -203 -533 -389 -106
-163 -150 -310 -150 -501 0 -155 23 -260 86 -395 195 -413 647 -621 1088 -500
147 41 282 121 406 240 l63 61 313 -158 313 -158 -1 -130 c-1 -71 2 -139 6
-150 5 -12 11 -37 14 -56 27 -171 178 -404 341 -525 374 -280 883 -244 1213
84 173 173 262 382 268 632 4 158 -18 269 -82 411 l-27 60 50 52 c54 56 72 75
328 343 283 296 395 413 500 521 l100 104 55 -29 c67 -34 124 -55 210 -78 86
-23 293 -27 382 -9 397 84 676 378 744 783 8 46 8 216 0 256 -22 114 -32 150
-59 216 -110 269 -325 463 -604 546 -72 22 -113 27 -223 30 -189 5 -309 -21
-458 -101 l-67 -35 -493 493 -494 494 29 54 c80 146 106 256 107 439 0 175
-20 266 -91 409 -153 309 -458 506 -797 515 -56 1 -128 -1 -161 -6z m250 -418
c141 -32 272 -137 339 -274 42 -84 51 -129 51 -241 -1 -204 -135 -391 -333
-465 -284 -107 -599 59 -676 355 -21 83 -15 222 13 296 96 252 347 388 606
329z m-2265 -822 c229 -59 391 -264 392 -493 2 -296 -235 -529 -527 -519 -190
6 -352 107 -440 275 -153 291 4 644 327 734 48 13 200 15 248 3z m1437 -274
l42 -52 -64 -98 c-35 -55 -83 -128 -105 -164 -122 -194 -192 -295 -203 -292
-7 2 -83 38 -170 80 l-158 77 7 35 c3 19 8 46 11 60 3 14 6 74 7 134 l1 110
280 102 280 103 15 -22 c8 -11 34 -44 57 -73z m2143 -1258 c-40 -82 -44 -87
-69 -82 -29 7 -76 14 -136 21 -43 5 -108 14 -140 20 -11 2 -50 6 -88 10 -37 4
-71 13 -74 19 -8 12 -8 11 -18 74 -16 109 -78 260 -148 362 -132 192 -346 333
-586 386 -59 13 -278 13 -346 -1 -114 -22 -217 -62 -314 -121 l-43 -26 34 53
c50 77 170 264 173 266 1 2 32 -6 69 -17 218 -62 450 -40 651 60 l90 45 494
-491 494 -492 -43 -86z m-2855 378 c55 -28 114 -58 132 -67 l32 -17 -86 -134
-87 -133 -48 80 c-26 44 -48 81 -48 83 0 1 -23 39 -50 85 -28 45 -49 83 -48
85 2 1 18 21 37 43 24 28 38 37 50 32 9 -3 61 -29 116 -57z m1543 19 c184 -48
327 -193 376 -378 18 -71 15 -211 -7 -271 -64 -175 -190 -296 -363 -347 -80
-24 -223 -16 -306 16 -218 84 -351 287 -335 512 10 142 65 256 169 351 124
113 306 159 466 117z m2242 -303 c30 -5 87 -26 127 -45 216 -106 332 -366 267
-595 -89 -313 -446 -470 -729 -321 -82 43 -166 121 -209 195 -36 62 -67 166
-70 238 -2 56 1 84 18 166 13 59 72 158 131 218 123 123 294 177 465 144z
m-3285 -182 c0 -159 5 -197 35 -290 61 -185 170 -339 320 -455 89 -68 158
-105 268 -143 l92 -33 0 -381 0 -381 -65 -19 c-36 -10 -67 -17 -69 -15 -7 8
-86 139 -86 143 0 2 -36 63 -80 135 -44 73 -80 134 -80 138 0 3 -11 21 -25 39
-14 18 -25 35 -25 37 0 3 -48 85 -106 183 -59 99 -115 193 -124 209 -10 17
-87 147 -173 290 l-155 260 17 28 c14 24 254 397 256 397 0 0 0 -64 0 -142z
m1885 -353 c25 -3 79 -10 120 -16 97 -14 113 -17 185 -25 33 -3 63 -11 67 -17
3 -6 9 -31 13 -56 16 -107 94 -317 126 -336 16 -10 10 -31 -17 -61 -22 -25
-125 -132 -429 -450 -196 -205 -379 -396 -431 -451 l-62 -65 -58 34 c-78 44
-168 84 -227 99 l-47 11 2 385 3 385 70 22 c238 75 434 245 546 471 39 79 45
85 68 81 14 -3 46 -8 71 -11z m-2125 -790 c114 -192 228 -384 253 -425 24 -41
73 -122 107 -180 34 -58 75 -127 92 -155 l29 -50 -44 -57 c-25 -32 -49 -58
-54 -58 -4 0 -139 65 -299 145 -235 118 -289 149 -285 163 9 34 19 128 21 197
1 64 -3 98 -20 195 -12 70 -56 188 -99 263 -37 65 -114 170 -138 187 -4 3 29
61 74 129 l80 123 38 -64 c20 -34 131 -220 245 -413z m-968 80 c310 -89 464
-433 322 -721 -135 -274 -482 -371 -735 -205 -285 187 -320 576 -73 805 61 56
82 70 159 105 87 39 223 46 327 16z m2257 -1026 c287 -77 452 -384 356 -665
-18 -50 -54 -121 -70 -134 -3 -3 -15 -18 -27 -33 -28 -37 -107 -99 -158 -125
-193 -98 -436 -59 -590 95 -205 202 -205 525 -1 727 129 128 320 180 490 135z"/>
</g>
</svg>
